<svg width="34" height="28" viewBox="0 0 34 28" fill="none" xmlns="http://www.w3.org/2000/svg">
<path d="M4.58807 20.0773C4.20658 20.0773 3.93335 19.9948 3.76838 19.8299C3.60342 19.6546 3.52093 19.3298 3.52093 18.8555C3.52093 18.5359 3.55186 18.1493 3.61373 17.6956C3.67559 17.2419 3.78385 16.5563 3.93851 15.6386C3.95913 15.5149 4.04161 15.0148 4.18596 14.1384C4.33031 13.2517 4.45919 12.3238 4.57261 11.3546C4.67571 10.5298 4.72727 9.91112 4.72727 9.4987C4.72727 9.03472 4.55714 8.80273 4.21689 8.80273C3.95913 8.80273 3.63435 8.94193 3.24255 9.22031C2.86106 9.48839 2.44863 9.92143 2.00528 10.5194C1.86093 10.7153 1.70112 10.8133 1.52584 10.8133C1.38149 10.8133 1.25261 10.7463 1.13919 10.6122C1.03609 10.4679 0.984534 10.3081 0.984534 10.1328C0.984534 9.95752 1.01547 9.79255 1.07733 9.63789C1.13919 9.47292 1.25261 9.27702 1.41758 9.05019C1.9228 8.35938 2.48472 7.82839 3.10335 7.45721C3.72199 7.07571 4.37155 6.88497 5.05205 6.88497C5.61913 6.88497 6.04186 7.06025 6.32025 7.41081C6.60894 7.76137 6.75329 8.27174 6.75329 8.94193C6.75329 9.53994 6.67081 10.406 6.50584 11.5402C7.02137 10.0142 7.67609 8.85944 8.47 8.07584C9.26391 7.28193 10.197 6.88497 11.2693 6.88497C12.1148 6.88497 12.7489 7.12727 13.1716 7.61186C13.6047 8.08615 13.8212 8.7254 13.8212 9.52963C13.8212 9.98329 13.7542 10.5349 13.6201 11.1845L12.6767 15.6077C12.5736 16.1232 12.522 16.5666 12.522 16.9378C12.522 17.3708 12.62 17.6956 12.8159 17.9121C13.0221 18.1286 13.3057 18.2369 13.6665 18.2369C14.0068 18.2369 14.3367 18.1235 14.6563 17.8966C14.9863 17.6698 15.3729 17.2935 15.8163 16.7676C15.94 16.6233 16.0792 16.5511 16.2339 16.5511C16.3679 16.5511 16.471 16.613 16.5432 16.7367C16.6257 16.8604 16.6669 17.0306 16.6669 17.2471C16.6669 17.6492 16.5689 17.9688 16.373 18.206C15.8369 18.8555 15.3059 19.3298 14.7801 19.6288C14.2542 19.9278 13.7026 20.0773 13.1252 20.0773C12.2488 20.0773 11.5632 19.8196 11.0683 19.304C10.5734 18.7782 10.3259 18.0771 10.3259 17.2007C10.3259 16.8604 10.3517 16.4893 10.4032 16.0871C10.4651 15.685 10.563 15.1747 10.6971 14.556L11.3157 11.7258C11.3363 11.633 11.3724 11.468 11.424 11.2309C11.4755 10.9937 11.5168 10.772 11.5477 10.5658C11.5786 10.3493 11.5941 10.138 11.5941 9.93174C11.5941 9.6018 11.5013 9.33888 11.3157 9.14298C11.1301 8.94708 10.8672 8.84913 10.527 8.84913C9.90832 8.84913 9.28969 9.17907 8.67106 9.83894C8.05242 10.4988 7.48019 11.566 6.95435 13.0404C6.42851 14.5045 6.01609 16.381 5.71708 18.6699C5.64491 19.1958 5.53665 19.5618 5.3923 19.768C5.25826 19.9742 4.99019 20.0773 4.58807 20.0773ZM22.3087 16.5511C22.4427 16.5511 22.5458 16.613 22.618 16.7367C22.7005 16.8604 22.7417 17.0306 22.7417 17.2471C22.7417 17.6595 22.6438 17.9791 22.4479 18.206C22.0664 18.6699 21.5251 19.0978 20.8239 19.4896C20.1331 19.8814 19.3908 20.0773 18.5969 20.0773C17.5143 20.0773 16.6739 19.7835 16.0759 19.1958C15.4779 18.6081 15.1789 17.8039 15.1789 16.7831C15.1789 16.0717 15.3284 15.4118 15.6274 14.8035C15.9264 14.1848 16.3388 13.6951 16.8647 13.3342C17.4008 12.9734 18.004 12.7929 18.6742 12.7929C19.2722 12.7929 19.7516 12.9734 20.1125 13.3342C20.4734 13.6848 20.6538 14.1642 20.6538 14.7725C20.6538 15.484 20.3961 16.0975 19.8805 16.613C19.3753 17.1182 18.5144 17.5203 17.2977 17.8193C17.5555 18.2936 18.0452 18.5307 18.767 18.5307C19.231 18.5307 19.7568 18.3709 20.3445 18.0513C20.9425 17.7214 21.458 17.2935 21.8911 16.7676C22.0148 16.6233 22.154 16.5511 22.3087 16.5511ZM18.4113 14.3086C18.0298 14.3086 17.705 14.5302 17.4369 14.9736C17.1792 15.417 17.0503 15.9531 17.0503 16.582V16.613C17.6586 16.4686 18.138 16.2521 18.4886 15.9634C18.8392 15.6747 19.0144 15.3396 19.0144 14.9581C19.0144 14.7622 18.9577 14.6076 18.8443 14.4942C18.7412 14.3704 18.5969 14.3086 18.4113 14.3086ZM27.344 16.5511C27.478 16.5511 27.5811 16.613 27.6533 16.7367C27.7358 16.8604 27.777 17.0306 27.777 17.2471C27.777 17.6595 27.6791 17.9791 27.4832 18.206C27.0398 18.7524 26.5552 19.2009 26.0294 19.5515C25.5139 19.902 24.9262 20.0773 24.2663 20.0773C23.359 20.0773 22.6836 19.6649 22.2403 18.8401C21.8072 18.0152 21.5907 16.9481 21.5907 15.6386C21.5907 14.3807 21.7505 12.9476 22.0701 11.3391C22.4001 9.73068 22.8795 8.34907 23.5085 7.19429C24.1477 6.0395 24.9056 5.46211 25.782 5.46211C26.2769 5.46211 26.6635 5.6941 26.9419 6.15807C27.2306 6.61174 27.3749 7.26646 27.3749 8.12224C27.3749 9.34919 27.0347 10.772 26.3542 12.3908C25.6737 14.0096 24.7509 15.6129 23.5858 17.2007C23.658 17.6234 23.7765 17.9276 23.9415 18.1132C24.1065 18.2884 24.323 18.3761 24.5911 18.3761C25.0138 18.3761 25.385 18.2575 25.7046 18.0204C26.0242 17.7729 26.4315 17.3553 26.9264 16.7676C27.0501 16.6233 27.1893 16.5511 27.344 16.5511ZM25.4417 6.99323C25.2046 6.99323 24.9365 7.42112 24.6375 8.27689C24.3385 9.13267 24.0756 10.1947 23.8487 11.4629C23.6219 12.7311 23.4982 13.9477 23.4775 15.1128C24.2096 13.9065 24.7921 12.7001 25.2252 11.4938C25.6582 10.2771 25.8747 9.16876 25.8747 8.16863C25.8747 7.38503 25.7304 6.99323 25.4417 6.99323ZM31.94 12.7929C32.1772 12.7929 32.3421 12.8239 32.4349 12.8857C32.5277 12.9476 32.5741 13.0507 32.5741 13.195C32.5741 13.4425 32.4401 14.324 32.172 15.8397C31.9349 17.2935 31.7957 18.1544 31.7544 18.4225C31.3729 21.0723 30.8471 23.1705 30.1769 24.7171C29.5067 26.2637 28.6149 27.037 27.5013 27.037C26.9755 27.037 26.5476 26.872 26.2177 26.542C25.8877 26.2224 25.7227 25.7997 25.7227 25.2739C25.7227 24.7893 25.831 24.2943 26.0475 23.7891C26.2744 23.2839 26.6868 22.7014 27.2848 22.0415C27.8931 21.3919 28.7489 20.6444 29.8521 19.7989L29.8985 19.4432C29.9707 19.0617 30.0532 18.5153 30.146 17.8039C29.9398 18.5462 29.6511 19.1133 29.2799 19.5051C28.9087 19.8866 28.5169 20.0773 28.1045 20.0773C27.6405 20.0773 27.259 19.866 26.96 19.4432C26.6713 19.0102 26.527 18.474 26.527 17.8348C26.527 17.0615 26.5785 16.3552 26.6816 15.716C26.7847 15.0664 26.9549 14.3807 27.192 13.659C27.2951 13.3497 27.4395 13.128 27.625 12.994C27.8106 12.8599 28.1045 12.7929 28.5066 12.7929C28.7334 12.7929 28.8881 12.829 28.9706 12.9012C29.0634 12.9734 29.1098 13.0816 29.1098 13.226C29.1098 13.3084 29.0531 13.5868 28.9396 14.0611C28.8365 14.4426 28.754 14.788 28.6922 15.0973C28.6097 15.5201 28.5375 15.9273 28.4757 16.3191C28.4138 16.7006 28.3829 17.0151 28.3829 17.2625C28.3829 17.6543 28.4911 17.8502 28.7077 17.8502C28.8623 17.8502 29.0531 17.6956 29.2799 17.3863C29.517 17.077 29.7645 16.6078 30.0222 15.9789C30.2903 15.3499 30.5481 14.5766 30.7955 13.659C30.878 13.3497 31.0018 13.128 31.1667 12.994C31.342 12.8599 31.5998 12.7929 31.94 12.7929ZM27.6714 25.5368C27.9292 25.5368 28.2179 25.2378 28.5375 24.6398C28.8572 24.0417 29.1768 23.0468 29.4964 21.6548C28.7025 22.325 28.1251 22.9334 27.7642 23.4798C27.4137 24.0366 27.2384 24.5212 27.2384 24.9336C27.2384 25.1089 27.2693 25.2532 27.3312 25.3666C27.4034 25.4801 27.5168 25.5368 27.6714 25.5368Z" fill="#6F6E6E"/>
</svg>
