<svg width="24" height="24" viewBox="0 0 24 24" fill="none" xmlns="http://www.w3.org/2000/svg">
<path d="M17.5 13.5V8.5V13.5ZM17.5 8.5V8C17.5 5.17155 17.5 3.75736 16.6213 2.87868C15.7426 2 14.3284 2 11.5 2H9.5C6.67155 2 5.25735 2 4.37868 2.87868C3.5 3.75736 3.5 5.17155 3.5 8V22H17.5V18.5C17.5 18.5 21 18.5 21 15.5C21 14.5 21 13 21 11.5C21 8.5 17.5 8.5 17.5 8.5Z" stroke="black" stroke-opacity="0.65" stroke-width="2" stroke-linecap="round" stroke-linejoin="round"/>
<path d="M7 11.5V2.5" stroke="black" stroke-opacity="0.65" stroke-width="2" stroke-linecap="round" stroke-linejoin="round"/>
<path d="M10.5 11.5V2.5" stroke="black" stroke-opacity="0.65" stroke-width="2" stroke-linecap="round" stroke-linejoin="round"/>
<path d="M14 11.5V2.5" stroke="black" stroke-opacity="0.65" stroke-width="2" stroke-linecap="round" stroke-linejoin="round"/>
</svg>
