<svg width="83" height="69" viewBox="0 0 83 69" fill="none" xmlns="http://www.w3.org/2000/svg">
<path d="M10.1695 51.1976C9.1946 51.1976 8.49635 50.9868 8.07476 50.5652C7.65317 50.1173 7.44238 49.2873 7.44238 48.0752C7.44238 47.2584 7.52143 46.2703 7.67952 45.111C7.83762 43.9516 8.11429 42.1994 8.50952 39.8543C8.56222 39.5381 8.77302 38.2602 9.1419 36.0205C9.51079 33.7544 9.84016 31.383 10.13 28.9062C10.3935 26.7983 10.5252 25.2173 10.5252 24.1633C10.5252 22.9776 10.0905 22.3848 9.22095 22.3848C8.56222 22.3848 7.73222 22.7405 6.73095 23.4519C5.75603 24.137 4.70206 25.2437 3.56905 26.7719C3.20016 27.2725 2.79175 27.5229 2.34381 27.5229C1.97492 27.5229 1.64556 27.3516 1.35571 27.009C1.09222 26.6402 0.960476 26.2317 0.960476 25.7838C0.960476 25.3359 1.03952 24.9143 1.19762 24.519C1.35571 24.0975 1.64556 23.5968 2.06714 23.0171C3.35825 21.2517 4.79429 19.8948 6.37524 18.9462C7.95619 17.9713 9.61619 17.4838 11.3552 17.4838C12.8044 17.4838 13.8848 17.9317 14.5962 18.8276C15.334 19.7235 15.7029 21.0278 15.7029 22.7405C15.7029 24.2687 15.4921 26.4821 15.0705 29.3805C16.3879 25.4808 18.0611 22.5297 20.09 20.5271C22.1189 18.4983 24.5035 17.4838 27.2438 17.4838C29.4044 17.4838 31.0249 18.103 32.1052 19.3414C33.2119 20.5535 33.7652 22.1871 33.7652 24.2424C33.7652 25.4017 33.594 26.8114 33.2514 28.4714L30.8405 39.7752C30.577 41.0927 30.4452 42.2257 30.4452 43.1743C30.4452 44.281 30.6956 45.111 31.1962 45.6643C31.7232 46.2176 32.4478 46.4943 33.37 46.4943C34.2395 46.4943 35.0827 46.2044 35.8995 45.6248C36.7427 45.0451 37.7308 44.0833 38.8638 42.7395C39.18 42.3706 39.5357 42.1862 39.931 42.1862C40.2735 42.1862 40.537 42.3443 40.7214 42.6605C40.9322 42.9767 41.0376 43.4114 41.0376 43.9648C41.0376 44.9924 40.7873 45.8092 40.2867 46.4152C38.9165 48.0752 37.5595 49.2873 36.2157 50.0514C34.8719 50.8156 33.4622 51.1976 31.9867 51.1976C29.747 51.1976 27.9948 50.5389 26.73 49.2214C25.4652 47.8776 24.8329 46.0859 24.8329 43.8462C24.8329 42.9767 24.8987 42.0281 25.0305 41.0005C25.1886 39.9729 25.4389 38.6686 25.7814 37.0876L27.3624 29.8548C27.4151 29.6176 27.5073 29.196 27.639 28.59C27.7708 27.984 27.8762 27.4175 27.9552 26.8905C28.0343 26.3371 28.0738 25.797 28.0738 25.27C28.0738 24.4268 27.8367 23.7549 27.3624 23.2543C26.8881 22.7537 26.2162 22.5033 25.3467 22.5033C23.7657 22.5033 22.1848 23.3465 20.6038 25.0329C19.0229 26.7192 17.5605 29.4463 16.2167 33.2143C14.8729 36.9559 13.8189 41.7514 13.0548 47.601C12.8703 48.9448 12.5937 49.8802 12.2248 50.4071C11.8822 50.9341 11.1971 51.1976 10.1695 51.1976ZM55.4555 42.1862C55.798 42.1862 56.0615 42.3443 56.2459 42.6605C56.4567 42.9767 56.5621 43.4114 56.5621 43.9648C56.5621 45.0187 56.3118 45.8356 55.8112 46.4152C54.8363 47.601 53.4529 48.6944 51.6612 49.6957C49.8958 50.697 47.9986 51.1976 45.9698 51.1976C43.2031 51.1976 41.0556 50.4467 39.5274 48.9448C37.9991 47.4429 37.235 45.3876 37.235 42.779C37.235 40.961 37.6171 39.2746 38.3812 37.72C39.1453 36.139 40.1993 34.8875 41.5431 33.9652C42.9132 33.043 44.4547 32.5819 46.1674 32.5819C47.6956 32.5819 48.9209 33.043 49.8431 33.9652C50.7653 34.8611 51.2264 36.0863 51.2264 37.641C51.2264 39.459 50.5677 41.0268 49.2502 42.3443C47.9591 43.6354 45.759 44.663 42.6498 45.4271C43.3085 46.6392 44.5601 47.2452 46.4045 47.2452C47.5902 47.2452 48.934 46.8368 50.4359 46.02C51.9642 45.1768 53.2817 44.0833 54.3883 42.7395C54.7045 42.3706 55.0602 42.1862 55.4555 42.1862ZM45.4955 36.4552C44.5206 36.4552 43.6906 37.0217 43.0055 38.1548C42.3467 39.2878 42.0174 40.6579 42.0174 42.2652V42.3443C43.572 41.9754 44.7972 41.4221 45.6931 40.6843C46.589 39.9465 47.0369 39.0902 47.0369 38.1152C47.0369 37.6146 46.892 37.2194 46.6021 36.9295C46.3386 36.6133 45.9698 36.4552 45.4955 36.4552ZM68.3236 42.1862C68.6661 42.1862 68.9296 42.3443 69.114 42.6605C69.3248 42.9767 69.4302 43.4114 69.4302 43.9648C69.4302 45.0187 69.1799 45.8356 68.6793 46.4152C67.5463 47.8117 66.3078 48.9579 64.964 49.8538C63.6466 50.7497 62.1447 51.1976 60.4583 51.1976C58.1396 51.1976 56.4137 50.1437 55.2807 48.0357C54.174 45.9278 53.6207 43.2006 53.6207 39.8543C53.6207 36.6397 54.0291 32.9771 54.8459 28.8667C55.6891 24.7562 56.9144 21.2254 58.5217 18.2743C60.1553 15.3232 62.092 13.8476 64.3317 13.8476C65.5964 13.8476 66.5845 14.4405 67.2959 15.6262C68.0337 16.7856 68.4026 18.4587 68.4026 20.6457C68.4026 23.7813 67.5331 27.4175 65.794 31.5543C64.055 35.6911 61.6967 39.7884 58.7193 43.8462C58.9037 44.9265 59.2067 45.7038 59.6283 46.1781C60.0499 46.626 60.6032 46.85 61.2883 46.85C62.3686 46.85 63.3172 46.547 64.134 45.941C64.9509 45.3086 65.9917 44.2414 67.2564 42.7395C67.5726 42.3706 67.9283 42.1862 68.3236 42.1862ZM63.4621 17.7605C62.8561 17.7605 62.171 18.854 61.4069 21.041C60.6428 23.2279 59.9709 25.9419 59.3912 29.1829C58.8115 32.4238 58.4953 35.533 58.4426 38.5105C60.3134 35.4276 61.8021 32.3448 62.9088 29.2619C64.0155 26.1527 64.5688 23.3202 64.5688 20.7643C64.5688 18.7617 64.1999 17.7605 63.4621 17.7605ZM80.0689 32.5819C80.675 32.5819 81.0965 32.661 81.3337 32.819C81.5708 32.9771 81.6894 33.2406 81.6894 33.6095C81.6894 34.2419 81.3469 36.4948 80.6618 40.3681C80.0557 44.0833 79.7 46.2835 79.5946 46.9686C78.6197 53.7403 77.2759 59.1024 75.5632 63.0548C73.8505 67.0071 71.5713 68.9833 68.7256 68.9833C67.3818 68.9833 66.2883 68.5617 65.4451 67.7186C64.6019 66.9017 64.1804 65.8214 64.1804 64.4776C64.1804 63.2392 64.457 61.9744 65.0104 60.6833C65.59 59.3922 66.644 57.9035 68.1723 56.2171C69.7269 54.5571 71.9138 52.6468 74.7332 50.4862L74.8518 49.5771C75.0362 48.6022 75.247 47.2057 75.4842 45.3876C74.9572 47.2848 74.2194 48.734 73.2708 49.7352C72.3223 50.7102 71.321 51.1976 70.267 51.1976C69.0813 51.1976 68.1064 50.6575 67.3423 49.5771C66.6045 48.4705 66.2356 47.1003 66.2356 45.4667C66.2356 43.4905 66.3673 41.6856 66.6308 40.0519C66.8943 38.3919 67.3291 36.6397 67.9351 34.7952C68.1986 34.0048 68.5675 33.4383 69.0418 33.0957C69.5161 32.7532 70.267 32.5819 71.2946 32.5819C71.8743 32.5819 72.2696 32.6741 72.4804 32.8586C72.7175 33.043 72.8361 33.3197 72.8361 33.6886C72.8361 33.8994 72.6911 34.6108 72.4013 35.8229C72.1378 36.7978 71.927 37.6805 71.7689 38.471C71.5581 39.5513 71.3737 40.5921 71.2156 41.5933C71.0575 42.5683 70.9784 43.3719 70.9784 44.0043C70.9784 45.0056 71.2551 45.5062 71.8084 45.5062C72.2037 45.5062 72.6911 45.111 73.2708 44.3205C73.8769 43.53 74.5092 42.3311 75.168 40.7238C75.8531 39.1165 76.5118 37.1403 77.1442 34.7952C77.355 34.0048 77.6711 33.4383 78.0927 33.0957C78.5407 32.7532 79.1994 32.5819 80.0689 32.5819ZM69.1604 65.1495C69.8191 65.1495 70.5569 64.3854 71.3737 62.8571C72.1905 61.3289 73.0073 58.7862 73.8242 55.229C71.7953 56.9417 70.3197 58.4963 69.3975 59.8929C68.5016 61.3157 68.0537 62.5541 68.0537 63.6081C68.0537 64.056 68.1327 64.4249 68.2908 64.7148C68.4753 65.0046 68.7651 65.1495 69.1604 65.1495Z" fill="white"/>
</svg>
